<?xml version="1.0" encoding="UTF-8"?>
<svg viewBox="0 0 64 64" xmlns="http://www.w3.org/2000/svg">
 <defs>
  <linearGradient id="d" x1="-.001026" x2="1.0011" y1=".50002" y2=".50002">
   <stop stop-color="#28292b" offset="0"/>
   <stop stop-color="#1a2334" offset="1"/>
  </linearGradient>
  <linearGradient id="c" x1=".00032" x2=".99953" y1=".53031" y2=".53031">
   <stop offset="0"/>
   <stop stop-color="#797979" offset="1"/>
  </linearGradient>
 </defs>
 <path d="m18.947 21.923h27.362l1.6642 14.481c-0.21187 2.4708-0.31364 2.551-1.8781 3.6498-1.9239 1.0638-4.2548 1.6261-6.3768 2.0274-5.3232 1.0066-11.204 0.99983-18.3-1.2178-2.3128-0.67684-3.3438-3.6458-3.1875-4.8654l0.7157-14.075z" stroke="#050404" stroke-width=".241"/>
 <path d="m0.3762 22.72l31.032-6.8463 32.357 6.2758-31.222 11.981-32.168-11.41z" fill="url(#d)"/>
 <path d="m12.119 37.117l1.7056-0.0458c0.96453 3.9401 2.7258 9.4162 2.1892 10.308-0.68496 1.4696-3.9177 2.09-4.6799 0.41372 0.043989-3.1696 0.91372-6.4564 0.78504-10.676z" fill="#f00"/>
 <path d="m34.784 21.702c-1.123 0.61706-3.4751-0.55251-3.8544-0.06008-0.03964 0.051611-4.9e-4 0.3436 0.005461 0.43018 0.92611 0.68023 2.7134 0.69268 3.8021 0.008461l0.0469-0.3786z" fill="#373737"/>
 <path d="m32.118 21.674l0.9582 0.2853c-4.8327 1.2457-17.613 2.4944-19.977 4.8186-0.71161 0.7139-0.0342 3.9484-0.26089 5.9165l-1.1236 0.0063c0.15444-1.9246-0.33504-4.7859 0.16782-5.8927 0.54826-1.1281 2.8177-2.5968 20.235-5.134z" fill="#f00"/>
 <rect transform="matrix(.98144 -.13974 .16523 .9823 .0013342 .18401)" x="5.6846" y="35.646" width="1.9868" height="3.2807" fill="#bfbfbf"/>
 <path d="m34.548 21.226c3.5489-1.1816 7.2344-2.1844 11.59-2.118 0.19474-0.04653 0.52432 0.31054-0.18733 0.32946-3.8388 0.15378-7.4336 1.2067-11.099 2.0003-0.46278 0.15699-0.58567-0.12604-0.30439-0.2118z"/>
 <path d="m34.612 22.037c4.2012 0.91255 8.4325 2.0755 12.698 4.6522 0.21978 0.06764 0.33563 0.60068-0.37871 0.20833-3.8837-2.0668-8.0547-3.1294-12.143-4.4816-0.54956-0.11619-0.50469-0.45888-0.17633-0.37899z"/>
 <path d="m32.167 21.369c-4.1466-1.1506-8.467-2.1698-13.652-2.3926-0.22869-0.04879-0.64318 0.21047 0.20205 0.27022 4.5561 0.36286 8.7654 1.4155 13.075 2.2692 0.54055 0.15234 0.70454-0.06188 0.37538-0.1469z"/>
 <path d="m13.926 33.709a1.5387 1.5464 0 1 1 -3.0774 0 1.5387 1.5464 0 1 1 3.0774 0z" fill="#f00"/>
 <path d="m34.784 21.702c-0.86426 0.62436-2.9799 0.60351-3.8651 0 0-0.44016 0.86523-0.79698 1.9326-0.79698 1.0673 0 1.9326 0.35682 1.9326 0.79698z" fill="url(#c)"/>
</svg>
